Coordinates
version=1
nRows=10
nColumns=22
inDegrees=yes

Units are S.I. units (second, meters, Newtons, ...)
If the header above contains a line with 'inDegrees', this indicates whether rotational values are in degrees (yes) or radians (no).

endheader
time	pelvis_tilt	pelvis_list	pelvis_rotation	pelvis_tx	pelvis_ty	pelvis_tz	hip_flexion_r	hip_adduction_r	hip_rotation_r	knee_angle_r	ankle_angle_r	subtalar_angle_r	hip_flexion_l	hip_adduction_l	hip_rotation_l	knee_angle_l	ankle_angle_l	subtalar_angle_l	lumbar_extension	lumbar_bending	lumbar_rotation
      5.51000000	     -4.84970827	    -12.25995609	    -76.84158940	      0.12822320	      0.93418433	      0.28058204	    -12.63357574	     18.01718949	      1.96132731	    -13.06399649	     11.67840634	     -6.45017141	     19.40741337	    -13.47202449	     -5.01020300	    -31.38841960	     14.31189774	    -12.59693827	    -15.46356324	     10.60779975	     -1.63399586
      5.52000000	     -5.03295057	    -12.18433200	    -77.71403194	      0.13060025	      0.93310626	      0.28890478	    -13.21368309	     17.86320184	      2.44160894	    -13.21385891	     12.18883267	     -6.37361621	     19.30677257	    -13.29378205	     -6.35691237	    -28.50373047	     13.91584668	    -11.28180407	    -15.43533889	     10.70873295	     -1.16533909
      5.53000000	     -5.21633843	    -12.09011967	    -78.53286394	      0.13308200	      0.93187771	      0.29720867	    -13.71395150	     17.69754224	      2.81417778	    -13.45702617	     12.73554297	     -6.26086954	     19.23474494	    -13.04570874	     -7.57890884	    -25.79085340	     13.55700086	     -9.89529975	    -15.38846152	     10.82144012	     -0.69699600
      5.54000000	     -5.38621879	    -11.97188745	    -79.29276947	      0.13567756	      0.93052779	      0.30553964	    -14.14842810	     17.51109205	      3.10049610	    -13.76463835	     13.26567760	     -6.12205653	     19.20158484	    -12.72668064	     -8.66461080	    -23.30005874	     13.25163923	     -8.43192709	    -15.30940687	     10.93489513	     -0.27290074
      5.55000000	     -5.54635120	    -11.85656287	    -80.01000193	      0.13834219	      0.92911344	      0.31389710	    -14.55394363	     17.31321456	      3.31964126	    -14.12351010	     13.84883337	     -5.97678733	     19.18402343	    -12.36097446	     -9.55393226	    -21.07978004	     13.02454059	     -7.04281509	    -15.23458023	     11.04097918	      0.19682647
      5.56000000	     -5.68071809	    -11.71952363	    -80.67609649	      0.14105691	      0.92764257	      0.32232481	    -14.90745366	     17.09227290	      3.48953634	    -14.53184633	     14.38608348	     -5.83425534	     19.20335266	    -11.94959268	    -10.26042425	    -19.16429316	     12.83323874	     -5.63165306	    -15.12865039	     11.12099873	      0.62384660
      5.57000000	     -5.78868950	    -11.60025915	    -81.30055636	      0.14378587	      0.92619679	      0.33080903	    -15.24539458	     16.85713368	      3.62095994	    -15.00262913	     14.91743634	     -5.70835428	     19.21210660	    -11.51744076	    -10.76025710	    -17.57845600	     12.66752323	     -4.28762653	    -15.04508235	     11.17237601	      1.04424770
      5.58000000	     -5.85836743	    -11.47619832	    -81.88746225	      0.14651036	      0.92478474	      0.33940968	    -15.56491003	     16.59177159	      3.72471632	    -15.50192862	     15.40838128	     -5.59987156	     19.21816584	    -11.06591173	    -11.05822222	    -16.33269618	     12.48479585	     -3.01920523	    -14.94498768	     11.17361508	      1.45068779
      5.59000000	     -5.88826558	    -11.35698458	    -82.43830579	      0.14919973	      0.92344602	      0.34814030	    -15.87917244	     16.30129060	      3.82377959	    -16.02626525	     15.84350459	     -5.50684085	     19.20242472	    -10.60713051	    -11.13467057	    -15.42718719	     12.24520416	     -1.87144676	    -14.83671897	     11.12026852	      1.83587596
      5.60000000	     -5.87369040	    -11.25693117	    -82.95828293	      0.15183334	      0.92221400	      0.35698896	    -16.19013028	     15.98256163	      3.90223573	    -16.60209134	     16.23481378	     -5.42567715	     19.14143293	    -10.14733449	    -10.99226484	    -14.85231217	     11.93331829	     -0.92409445	    -14.74164517	     11.00690592	      2.18535526
